<?xml version="1.0" standalone="no"?>
<!DOCTYPE svg PUBLIC "-//W3C//DTD SVG 20010904//EN"
 "http://www.w3.org/TR/2001/REC-SVG-20010904/DTD/svg10.dtd">
<svg version="1.0" xmlns="http://www.w3.org/2000/svg"
 width="256.000000pt" height="256.000000pt" viewBox="0 0 256.000000 256.000000"
 preserveAspectRatio="xMidYMid meet">
<metadata>
Created by potrace 1.14, written by Peter Selinger 2001-2017
</metadata>
<g transform="translate(0.000000,256.000000) scale(0.100000,-0.100000)"
fill="#000000" stroke="none">
<path d="M205 2421 c-80 -37 -118 -100 -129 -211 -4 -36 -9 -76 -11 -90 -2
-14 -7 -61 -11 -105 -3 -44 -8 -83 -10 -86 -2 -3 -6 -60 -10 -126 -6 -106 -5
-124 13 -164 37 -82 59 -95 171 -110 4 -1 55 -1 114 0 l106 1 6 28 c4 15 8 54
11 87 10 140 96 252 218 279 l27 6 0 -135 0 -135 -39 0 c-80 0 -148 -39 -189
-109 -22 -37 -26 -57 -26 -119 0 -50 4 -77 12 -80 7 -2 12 -10 12 -18 0 -8 4
-14 9 -14 5 0 33 -23 62 -50 l53 -50 102 0 c92 0 102 2 100 18 -2 14 -17 18
-92 22 -52 4 -98 12 -112 20 -33 22 -52 71 -52 137 0 106 38 144 146 145 123
0 110 -30 110 259 l0 252 -84 -6 c-180 -12 -278 -100 -356 -318 -22 -62 -54
-90 -109 -96 -40 -5 -48 -2 -83 30 -45 41 -45 45 -20 277 9 80 19 170 22 200
10 94 14 112 35 141 11 16 34 32 50 36 23 6 1680 10 1749 4 41 -3 82 -65 89
-133 1 -5 7 -8 15 -8 8 0 28 -11 45 -25 16 -14 38 -28 48 -30 61 -12 93 -38
153 -123 46 -66 45 -63 38 -194 -2 -45 -9 -72 -21 -86 -10 -10 -20 -30 -22
-43 -3 -13 -13 -35 -23 -49 -15 -19 -17 -31 -10 -50 13 -35 16 -61 17 -187 0
-62 5 -113 10 -113 4 0 25 15 45 34 l36 35 0 108 c0 100 2 113 30 170 46 93
58 287 23 356 -58 114 -124 182 -226 232 -49 24 -65 38 -84 75 -29 56 -81 103
-131 118 -29 9 -276 12 -913 12 -829 0 -876 -1 -914 -19z"/>
<path d="M285 2230 c-4 -6 -13 -72 -21 -148 -17 -168 -23 -226 -30 -275 -10
-71 9 -59 43 29 44 114 95 188 170 245 89 68 161 89 321 96 l132 6 0 -362 0
-361 -125 0 c-69 0 -125 -3 -126 -7 -1 -5 -2 -24 -3 -43 l-1 -35 128 -3 127
-3 0 -244 0 -245 -165 0 -165 0 0 -310 0 -310 185 0 185 0 0 -25 c0 -24 2 -25
70 -25 68 0 70 1 70 25 l0 25 327 0 327 0 -22 -20 c-28 -26 -28 -64 0 -90 34
-32 51 -30 165 12 77 29 83 34 89 65 6 31 9 33 45 33 36 0 39 -2 39 -29 0 -16
6 -33 13 -39 13 -11 110 -47 163 -61 86 -23 149 76 76 118 -15 9 -14 10 6 11
l22 0 0 310 0 310 -85 0 c-83 0 -91 3 -86 34 1 5 4 27 6 48 2 22 16 71 31 110
26 68 27 78 27 268 0 224 -3 238 -69 258 -20 6 -41 9 -46 6 -4 -3 -8 -1 -8 4
0 17 68 84 78 78 6 -3 12 1 16 9 3 8 14 15 24 15 14 0 17 6 14 33 -3 28 0 35
22 45 31 14 32 22 8 52 -18 22 -18 23 5 46 31 31 30 48 -3 40 -23 -6 -25 -4
-19 15 9 27 -13 69 -36 69 -12 0 -16 5 -13 15 7 18 -18 20 -47 5 -16 -9 -21
-7 -28 12 -8 21 -50 67 -52 57 0 -2 -3 -15 -5 -28 -6 -35 -7 -35 -42 -4 -26
24 -31 37 -36 91 -3 34 -8 67 -11 72 -8 14 -1682 13 -1690 0z m1340 -65 c89
-19 166 -58 223 -114 l45 -43 -32 -14 c-18 -8 -37 -11 -42 -8 -18 11 -8 -31
13 -53 l21 -23 -21 0 c-25 0 -30 -18 -7 -26 12 -5 11 -12 -8 -44 -23 -41 -18
-62 9 -39 15 12 16 11 10 -9 -8 -24 16 -58 34 -47 5 3 10 2 10 -4 0 -5 6 -16
13 -23 6 -8 20 -27 29 -43 10 -17 22 -29 28 -27 5 1 10 -6 10 -17 0 -25 -66
-34 -117 -15 -21 7 -48 13 -60 14 -24 0 -31 16 -11 22 8 3 -3 23 -30 53 -41
46 -46 58 -44 100 1 11 3 66 4 122 3 101 3 103 -22 112 -50 20 -106 31 -152
31 l-47 0 0 -543 -1 -544 44 -1 c42 -2 44 -1 54 35 5 21 22 70 36 108 22 58
58 212 80 338 8 44 36 126 46 132 8 5 90 -30 90 -38 0 -2 -7 -26 -15 -53 -8
-27 -28 -115 -45 -196 -17 -82 -43 -183 -59 -225 -46 -127 -48 -140 -15 -174
l28 -29 -173 2 -174 3 1 635 c0 349 1 641 1 648 1 17 157 16 246 -3z m-24
-262 c0 -10 0 -57 -1 -104 -1 -70 3 -96 20 -133 21 -43 21 -47 6 -93 -9 -26
-22 -75 -30 -108 -14 -57 -14 -48 -15 198 -1 165 3 257 9 257 6 0 10 -8 11
-17z"/>
<path d="M588 1816 c-30 -30 -86 -136 -72 -136 3 0 18 7 33 14 15 8 41 17 57
19 23 3 30 10 34 33 7 37 0 104 -10 104 -4 0 -23 -15 -42 -34z m34 -50 c-3
-26 -9 -35 -28 -39 -13 -2 -24 -1 -24 4 0 7 49 69 54 69 1 0 0 -15 -2 -34z"/>
</g>
</svg>
